<svg xmlns="http://www.w3.org/2000/svg" fill="none" viewBox="0 0 64 64"><path fill="url(#a)" d="M23.05 8.05A7 7 0 0 0 18.1 6H11a7 7 0 0 0-7 7v34a7 7 0 0 0 7 7h42a7 7 0 0 0 7-7V19a7 7 0 0 0-7-7H28.243a3 3 0 0 1-2.122-.879l-3.07-3.07z"/><path fill="url(#b)" fill-opacity=".2" d="M23.05 8.05A7 7 0 0 0 18.1 6H11a7 7 0 0 0-7 7v34a7 7 0 0 0 7 7h42a7 7 0 0 0 7-7V19a7 7 0 0 0-7-7H28.243a3 3 0 0 1-2.122-.879l-3.07-3.07z"/><path fill="url(#c)" d="M5 23a6 6 0 0 1 6-6h10.5a5 5 0 0 0 4-2 5 5 0 0 1 4-2H53a6 6 0 0 1 6 6v28a6 6 0 0 1-6 6H11a6 6 0 0 1-6-6V23z"/><path fill="#944600" fill-rule="evenodd" d="M26 29c3.261 0 5.905 2.686 5.905 6S29.261 41 26 41c-.72 0-11.68-1.131-16.62-1.645A2.658 2.658 0 0 1 7.017 37h6.982a2 2 0 0 0 0-4H7.016a2.657 2.657 0 0 1 2.365-2.354C14.32 30.133 25.279 29 26 29zm0 2a4 4 0 1 0 0 8 4 4 0 0 0 0-8z" clip-rule="evenodd"/><path fill="#944600" d="M38 32a1 1 0 0 1 1 1v6a1 1 0 1 1-2 0v-6a1 1 0 0 1 1-1zm8 0a1 1 0 0 1 1 1v6a1 1 0 1 1-2 0v-6a1 1 0 0 1 1-1zm8 0a1 1 0 0 1 1 1v6a1 1 0 1 1-2 0v-6a1 1 0 0 1 1-1zm-20-2a1 1 0 0 1 1 1v6a1 1 0 1 1-2 0v-6a1 1 0 0 1 1-1zm8 0a1 1 0 0 1 1 1v6a1 1 0 1 1-2 0v-6a1 1 0 0 1 1-1zm8 0a1 1 0 0 1 1 1v6a1 1 0 1 1-2 0v-6a1 1 0 0 1 1-1zm8 0a1 1 0 0 1 1 1v6a1 1 0 1 1-2 0v-6a1 1 0 0 1 1-1zm-44 4a1 1 0 1 1 0 2H7a1 1 0 1 1 0-2h7z"/><defs><linearGradient id="a" x1="18" x2="18" y1="52" y2="8" gradientUnits="userSpaceOnUse"><stop stop-color="#BA7300"/><stop offset=".221" stop-color="#C77B00"/><stop offset=".716" stop-color="#D48300"/><stop offset="1" stop-color="#D48300"/></linearGradient><radialGradient id="b" cx="0" cy="0" r="1" gradientTransform="matrix(0 5.84242 -20 0 24 21)" gradientUnits="userSpaceOnUse"><stop/><stop offset="1" stop-opacity="0"/></radialGradient><linearGradient id="c" x1="28.5" x2="20.75" y1="52.5" y2="16" gradientUnits="userSpaceOnUse"><stop stop-color="#F7AB40"/><stop offset="1" stop-color="#FFDD57"/></linearGradient></defs></svg>