<svg xmlns="http://www.w3.org/2000/svg" fill="none" viewBox="0 0 32 32"><path fill="url(#a)" d="M11.525 5.025A3.5 3.5 0 0 0 9.05 4H5.5A3.5 3.5 0 0 0 2 7.5v16A3.5 3.5 0 0 0 5.5 27h21a3.5 3.5 0 0 0 3.5-3.5v-13A3.5 3.5 0 0 0 26.5 7H14.121a1.5 1.5 0 0 1-1.06-.44l-1.536-1.535z"/><path fill="url(#b)" fill-opacity=".2" d="M11.525 5.025A3.5 3.5 0 0 0 9.05 4H5.5A3.5 3.5 0 0 0 2 7.5v16A3.5 3.5 0 0 0 5.5 27h21a3.5 3.5 0 0 0 3.5-3.5v-13A3.5 3.5 0 0 0 26.5 7H14.121a1.5 1.5 0 0 1-1.06-.44l-1.536-1.535z"/><path fill="url(#c)" d="M3 12.5A2.5 2.5 0 0 1 5.5 10h5.25a2.5 2.5 0 0 0 2-1 2.5 2.5 0 0 1 2-1H26.5a2.5 2.5 0 0 1 2.5 2.5v13a2.5 2.5 0 0 1-2.5 2.5h-21A2.5 2.5 0 0 1 3 23.5v-11z"/><path fill="#944600" fill-rule="evenodd" d="M14.501 15a3.5 3.5 0 1 1 0 7c-.424 0-5.713-.642-8.211-.947A1.466 1.466 0 0 1 5.059 20H7.5a1.5 1.5 0 0 0 0-3H5.059c.159-.554.633-.98 1.231-1.054 2.498-.305 7.787-.946 8.211-.946zm-.001 1a2.5 2.5 0 1 0 0 5 2.5 2.5 0 0 0 0-5z" clip-rule="evenodd"/><path fill="#944600" d="M21.5 17a.5.5 0 0 1 .5.5v3a.5.5 0 0 1-1 0v-3a.5.5 0 0 1 .5-.5zm4 0a.5.5 0 0 1 .5.5v3a.5.5 0 0 1-1 0v-3a.5.5 0 0 1 .5-.5zm-6-1a.5.5 0 0 1 .5.5v3a.5.5 0 0 1-1 0v-3a.5.5 0 0 1 .5-.5zm4 0a.5.5 0 0 1 .5.5v3a.5.5 0 0 1-1 0v-3a.5.5 0 0 1 .5-.5zm4 0a.5.5 0 0 1 .5.5v3a.5.5 0 0 1-1 0v-3a.5.5 0 0 1 .5-.5zm-20 2a.5.5 0 0 1 0 1h-3a.5.5 0 0 1 0-1h3z"/><defs><linearGradient id="a" x1="9" x2="9" y1="26" y2="4" gradientUnits="userSpaceOnUse"><stop stop-color="#BA7300"/><stop offset=".221" stop-color="#C77B00"/><stop offset=".716" stop-color="#D48300"/><stop offset="1" stop-color="#D48300"/></linearGradient><radialGradient id="b" cx="0" cy="0" r="1" gradientTransform="matrix(0 2.92121 -10 0 12 10.5)" gradientUnits="userSpaceOnUse"><stop/><stop offset="1" stop-opacity="0"/></radialGradient><linearGradient id="c" x1="14.25" x2="10.375" y1="26.25" y2="8" gradientUnits="userSpaceOnUse"><stop stop-color="#F7AB40"/><stop offset="1" stop-color="#FFDD57"/></linearGradient></defs></svg>